<svg xmlns="http://www.w3.org/2000/svg" width="200" height="80" viewBox="0 0 200 80">
<defs>
    <style>
      .cls-1 {
        fill: #00386b;
        fill-rule: evenodd;
      }
    </style>
  </defs>
  <path id="logo" class="cls-1" d="M49.469,9.2h0.388a7.027,7.027,0,0,0-1.1,1.651c-1.114,2.826-.279,4.689-2.911,6.282a4.242,4.242,0,0,1-2.038.745c0.165-.72,1.093-1.623.55-2.655l-1.067.518c-2.19.616-3.2-.043-3.817,2.3-1.654-.316-3.572-2.462-2.2-4.306,0.986-1.325,2.969-1.257,4.755-1.813,0.548-.171.923-0.631,1.423-0.745,0.419,1.022-.329,1.7-0.582,2.428,2.012-.508,2.561-1.826,3.914-2.914A13.177,13.177,0,0,1,49.469,9.2Zm-14.1,9.714,9.769,0.032c0.612,0.092,2.857-.206,3.17.065a3.747,3.747,0,0,1-.032,1.716,2.522,2.522,0,0,0-1.035.13c-0.724.484-1.2,2.4-2.07,2.623l-5.079-.032a4.781,4.781,0,0,1-1.747-.065c-0.806-.52-1.186-2.317-2.135-2.687l-0.841-.032V18.914ZM17.38,22.282H32.066l-0.032,1.813c-3.5.236-3.138,3.883-3.138,7.609l0.032,12.725c0,2.913-.083,5.932.1,8.645H28.96l-1.391.389a18.72,18.72,0,0,1-4.981,1l-0.421-1.2a20,20,0,0,1-.485-2.526,37.6,37.6,0,0,1-.1-5.764L21.553,34.618c0-2.255.414-7.464-.388-8.84-0.7-1.193-1.985-1.739-3.785-1.813V22.282Zm33.771,0H61.793l-0.032,1.91a3.722,3.722,0,0,0-2.2.68c-1.9,1.259-1.456,3.536-1.456,6.573q-0.016,4.112-.032,8.225l-3.041,1.943H55V30.571c0-1.714.2-3.82-.485-4.857a3.9,3.9,0,0,0-3.364-1.522v-1.91Zm-6.793,2.169-0.615,8.613a11.828,11.828,0,0,0-3.591.065l-0.712-8.678h4.917ZM59.658,32c2.789-.048,5.495.437,4.755,3.627l-0.356,1.1c-1.049,2.407-3.883,4.85-6.017,6.217,0.508,11.288-3.182,18.211-10.06,22.213A17.63,17.63,0,0,1,25.531,60.2l-1.941-3.238c-2.666.05-6.692-.518-7.44-2.234a3.087,3.087,0,0,1,.421-2.59,14.669,14.669,0,0,1,4.723-4.663h0.032q-0.016.712-.032,1.425a12.583,12.583,0,0,0-3.752,3.594,1.547,1.547,0,0,0,.162,2.137,8.7,8.7,0,0,0,4.723.486,66.515,66.515,0,0,0,9.51-2.137,92.819,92.819,0,0,0,25.2-11.948c1.73-1.22,5.524-3.651,6.114-5.764,0.717-2.57-3.082-2.308-4.852-1.91v-1.2Zm-5.143.971a2.881,2.881,0,0,1,.065,1.23,20.444,20.444,0,0,0-4.011,1.2,2.824,2.824,0,0,1-1.423.389l-0.97-.648V35.1l3.979-1.457ZM44.39,37.986l-8.637,1.651-0.259-.356,1.585-3.5a4.035,4.035,0,0,1,.712-1.522l1.294-.421a10.9,10.9,0,0,1,7.634.68l-1.456,2.785A0.676,0.676,0,0,0,44.39,37.986Zm-7.116-3.465a3.339,3.339,0,0,1-.55,1.328l-1.456,3.335a1.147,1.147,0,0,0-.679.259L32.907,38.7l0.032-.1a15.7,15.7,0,0,1,2.232-2.687C35.819,35.4,36.615,35.049,37.274,34.521Zm9.639,0.162a1.449,1.449,0,0,1,.938.583l0.194,1.975-2.329.453L45.522,37.4Zm1.229,0.745a4.392,4.392,0,0,1,1.617,1.425,3.935,3.935,0,0,1-1.456.324Zm1.811,1.684c1.118,0.6,2.508,4.328,2.523,6.249l-3.429,1.781L48.5,39.378a8.588,8.588,0,0,1-.1-1.943Zm-2.006.389h0.129l0.712,7.8-0.679.324L43.1,43.361a1.065,1.065,0,0,0-.259-0.745l2.005-3.95a0.771,0.771,0,0,0,.97-0.745Zm-3.59.712a0.891,0.891,0,0,1,.259.291l-2.006,3.983a0.909,0.909,0,0,0-.809.259l-4.529-2.072a3.818,3.818,0,0,1-1.456-.712Zm-11.58.712L34.459,39.7l-0.065.259-2.264.421V40.35Zm1.65,1.263,0.259,0.291L33.23,43.685l-0.129-.1L31.807,41.58,32,40.673Zm1.294,0.1,5.952,2.688a2.618,2.618,0,0,0,.259.842L39.538,48.38c-0.49.96-.719,1.862-1.941,2.1l-2.976-4.63a5.757,5.757,0,0,1-1.2-1.943l1.456-3.3A0.834,0.834,0,0,0,35.721,40.285Zm-4.27,1.587-0.129,1.489-2.1,1.166a3.367,3.367,0,0,1,.065-1.392Zm0.259,0.065a8.309,8.309,0,0,1,1.391,2.1l-1.165,2.59H31.872A13.247,13.247,0,0,1,31.71,41.936Zm11.225,1.651,4.885,2.169-0.032.065L45.3,47.052,41.058,49l-2.006.874,3.105-5.99A0.916,0.916,0,0,0,42.934,43.588Zm-9.7.712A4.674,4.674,0,0,1,34.3,45.887l3.073,4.727-2.491.971a8.764,8.764,0,0,1-2.361-3.238,2.52,2.52,0,0,1-.485-1.36Zm21.737,0.842c-0.648.655-2.823,1.351-3.041,2.2l-0.356-.13-0.291.13v0.032L51.8,47.57c-0.146,1.283-1.469,2.633-2.135,3.5L49.6,51.035l-0.259-2.687-0.226.1c0.085,0.637.4,2.694,0.162,3.044-0.614.3-1.146,0.984-1.747,1.36a11.574,11.574,0,0,1-4.69,1.489,7.941,7.941,0,0,1-2.814-.13l-0.873-1.3-0.194.065V53.01l0.647,1v0.1H39.57c-0.4-.133-1.6-0.628-1.844-0.648L32.518,55.18l-2.814.777c1.03,4.135,5.08,7.137,9.057,8.386a12.162,12.162,0,0,0,7.472-.421c4-1.726,6.235-5.5,7.6-9.876a38.079,38.079,0,0,0,.938-4.177l0.162-2.04A9.035,9.035,0,0,0,54.968,45.142ZM43.031,54.726L42.773,58.58c-0.1.642,0.1,1.442-.388,1.684-0.842.488-1.119-.372-1.229-1.036l-0.421-4.533Z"/>
  <path id="text" class="cls-1" d="M89.711,26.462a2.606,2.606,0,0,1-1.784.659,2.854,2.854,0,0,1-2.285-1.037,5.4,5.4,0,0,1-.879-3.48,5.04,5.04,0,0,1,.892-3.331,2.931,2.931,0,0,1,2.325-1.028A2.662,2.662,0,0,1,90.7,20.406l2.575-.615a5.084,5.084,0,0,0-1.318-2.373,5.359,5.359,0,0,0-3.841-1.4,5.7,5.7,0,0,0-4.368,1.78,7.043,7.043,0,0,0-1.661,5,6.709,6.709,0,0,0,1.652,4.794,6.071,6.071,0,0,0,7.642.729,5.657,5.657,0,0,0,1.929-3.133l-2.522-.8A3.83,3.83,0,0,1,89.711,26.462Zm7.471,2.689a3.51,3.51,0,0,1-.633,1.288,1.55,1.55,0,0,1-1.274.505,5.468,5.468,0,0,1-1.046-.114l0.22,1.934a6.551,6.551,0,0,0,1.4.149,4.889,4.889,0,0,0,1.261-.149,2.96,2.96,0,0,0,.94-0.417,2.709,2.709,0,0,0,.677-0.7,6.639,6.639,0,0,0,.62-1.248l0.589-1.626,3.3-8.982h-2.558l-2.179,6.627-2.232-6.627H93.631Zm6.742-.026h2.109V22.981l2.171,6.144h2.11l2.276-6.144v6.144h2.1V19.791h-3.05l-2.338,6.5-2.32-6.5h-3.059v9.334Zm18.981-8.811a4.51,4.51,0,0,0-2.712-.734,4.342,4.342,0,0,0-3.3,1.288,5.022,5.022,0,0,0-1.221,3.6,5.007,5.007,0,0,0,1.217,3.577,4.273,4.273,0,0,0,3.265,1.292,4.489,4.489,0,0,0,2.874-.852,4.3,4.3,0,0,0,1.45-2.523l-2.425-.413a2.4,2.4,0,0,1-.633,1.375,1.666,1.666,0,0,1-1.152.4,1.831,1.831,0,0,1-1.5-.686,3.778,3.778,0,0,1-.558-2.347,3.267,3.267,0,0,1,.549-2.131,1.845,1.845,0,0,1,1.472-.637,1.687,1.687,0,0,1,1.13.369,1.767,1.767,0,0,1,.558,1.1l2.434-.439A4.07,4.07,0,0,0,122.905,20.314Zm2.65,8.811h5.3a4.686,4.686,0,0,0,2.782-.681,2.362,2.362,0,0,0,.927-2.035,2.646,2.646,0,0,0-.519-1.622,2.353,2.353,0,0,0-1.3-.91,9.117,9.117,0,0,0-2.242-.211h-2.478V19.791h-2.47v9.334Zm2.47-3.937h1.608a4.692,4.692,0,0,1,1.859.255,0.942,0.942,0,0,1,.523.932,1.237,1.237,0,0,1-.3.835,1.886,1.886,0,0,1-1.384.352h-2.3V25.188Zm7.726,3.938h2.461V25.144a1.252,1.252,0,0,1,.822.233,3.282,3.282,0,0,1,.655,1.05l1.23,2.7h2.654l-1.379-2.575c-0.036-.064-0.068-0.126-0.1-0.185a3.39,3.39,0,0,0-1.978-2.03,2.317,2.317,0,0,0,1.24-1.591,2.549,2.549,0,0,1,.589-1.151,2.629,2.629,0,0,1,1.248-.185l-0.009-1.635q-0.695-.044-0.976-0.044a2.557,2.557,0,0,0-1.476.387,3.56,3.56,0,0,0-1.037,1.767,5.008,5.008,0,0,1-.616,1.345,1.273,1.273,0,0,1-.87.378V19.791h-2.461v9.334Zm8.324,0h2.373l3.85-5.968v5.968h2.373V19.791h-2.426l-3.8,5.862V19.791h-2.373v9.334Zm10.346,0h2.373l3.849-5.968v5.968h2.373V19.791h-2.425l-3.8,5.862V19.791h-2.373v9.334ZM159.9,16.948a2.041,2.041,0,0,1-2.2,0,1.355,1.355,0,0,1-.44-0.945h-1.2a2.787,2.787,0,0,0,.84,1.877,3,3,0,0,0,3.8,0A2.787,2.787,0,0,0,161.54,16h-1.2A1.355,1.355,0,0,1,159.9,16.948ZM90.238,48.586h2.013V44.1h-1V36.791H83.717a23.7,23.7,0,0,1-.492,5.115,5.481,5.481,0,0,1-1.046,2.2H81.168v4.482h2V46.125h7.067v2.461ZM84.6,44.1q1.081-1.415,1.23-5.282h2.988L88.805,44.1H84.6Zm13.439,0.07a1.512,1.512,0,0,1-.976.316,1.869,1.869,0,0,1-1.424-.611,2.5,2.5,0,0,1-.6-1.709h6.188a6.091,6.091,0,0,0-1.151-4.214,4.145,4.145,0,0,0-3.287-1.375,4,4,0,0,0-3.067,1.314,5.154,5.154,0,0,0-1.213,3.634,5.344,5.344,0,0,0,.923,3.217,4.176,4.176,0,0,0,3.6,1.591,4.4,4.4,0,0,0,2.562-.708,4.035,4.035,0,0,0,1.5-2.061l-2.461-.413A1.954,1.954,0,0,1,98.035,44.174Zm-2.953-3.516a2.279,2.279,0,0,1,.519-1.6,1.782,1.782,0,0,1,2.619-.031,2.378,2.378,0,0,1,.554,1.63H95.081Zm7.366,9.018h2.47v-4.7a4.724,4.724,0,0,0,1.323,1.055,3.145,3.145,0,0,0,1.4.308,3.559,3.559,0,0,0,2.768-1.3,5.313,5.313,0,0,0,1.143-3.634,5.158,5.158,0,0,0-1.134-3.551,3.56,3.56,0,0,0-2.76-1.274,3.344,3.344,0,0,0-1.7.439,3.447,3.447,0,0,0-1.213,1.143V36.791h-2.3V49.676Zm3.041-10.446a1.9,1.9,0,0,1,1.5-.7,1.821,1.821,0,0,1,1.459.712,3.371,3.371,0,0,1,.589,2.18,3.554,3.554,0,0,1-.571,2.263,1.785,1.785,0,0,1-1.433.69,1.909,1.909,0,0,1-1.52-.751,3.6,3.6,0,0,1-.624-2.325A3.112,3.112,0,0,1,105.488,39.23Zm13.387,6.9V42.144a1.163,1.163,0,0,1,.76.3,3.324,3.324,0,0,1,.585.984l1.168,2.7h2.655l-1.319-2.575a3.905,3.905,0,0,0-2.083-2.215,2.341,2.341,0,0,0,1.24-1.591,2.553,2.553,0,0,1,.6-1.147,2.58,2.58,0,0,1,1.248-.189V36.773Q123,36.73,122.742,36.73a2.621,2.621,0,0,0-1.455.369,3.565,3.565,0,0,0-1.067,1.784,5.869,5.869,0,0,1-.629,1.415,0.855,0.855,0,0,1-.716.308V36.791h-2.452v3.815a0.9,0.9,0,0,1-.712-0.312,5.84,5.84,0,0,1-.633-1.411,3.5,3.5,0,0,0-1.09-1.793,2.6,2.6,0,0,0-1.4-.36q-0.291,0-1.02.044v1.635a2.58,2.58,0,0,1,1.253.189,2.6,2.6,0,0,1,.593,1.147,2.34,2.34,0,0,0,1.239,1.591,3.905,3.905,0,0,0-2.083,2.215l-1.318,2.575h2.654l1.178-2.7a5.508,5.508,0,0,1,.663-1.068,1.094,1.094,0,0,1,.673-0.215v3.981h2.452Zm8.385-7.4a1.769,1.769,0,0,1,1.029-.259,2.109,2.109,0,0,1,1.327.3,1.28,1.28,0,0,1,.351,1.015v0.246a13.432,13.432,0,0,1-2.4.606,8.267,8.267,0,0,0-1.964.576,2.467,2.467,0,0,0-1.06.949,2.654,2.654,0,0,0-.377,1.411,2.6,2.6,0,0,0,.83,1.977,3.181,3.181,0,0,0,2.272.782,3.874,3.874,0,0,0,1.538-.308,4.447,4.447,0,0,0,1.354-.923c0.017,0.047.047,0.144,0.088,0.29q0.14,0.483.237,0.73h2.443a5.282,5.282,0,0,1-.444-1.252,10.031,10.031,0,0,1-.118-1.815l0.026-2.883a5.106,5.106,0,0,0-.329-2.21,2.459,2.459,0,0,0-1.139-.993,5.909,5.909,0,0,0-2.461-.391,4.761,4.761,0,0,0-2.742.65,3.493,3.493,0,0,0-1.3,2l2.242,0.4A1.8,1.8,0,0,1,127.26,38.729Zm2.707,3.406a4.91,4.91,0,0,1-.1,1.2,1.548,1.548,0,0,1-.589.817,2.14,2.14,0,0,1-1.275.439,1.35,1.35,0,0,1-.984-0.378,1.211,1.211,0,0,1-.387-0.9,1.029,1.029,0,0,1,.484-0.87,4.525,4.525,0,0,1,1.344-.431,15.371,15.371,0,0,0,1.5-.378v0.492Zm4.167,3.99h5.88a3.56,3.56,0,0,0,2.364-.681,2.217,2.217,0,0,0,.8-1.771,2.36,2.36,0,0,0-.475-1.424,2.418,2.418,0,0,0-1.441-.888,2.192,2.192,0,0,0,1.591-2.136,2.122,2.122,0,0,0-.826-1.828,4.2,4.2,0,0,0-2.488-.607h-5.405v9.334Zm2.487-7.752h1.591a4.029,4.029,0,0,1,1.7.251,0.873,0.873,0,0,1,.479.839,0.976,0.976,0,0,1-.514.914,3.566,3.566,0,0,1-1.666.29h-1.591V38.373Zm0,3.8h1.266a5.871,5.871,0,0,1,2.153.259,1.094,1.094,0,0,1,.071,1.859,3.472,3.472,0,0,1-1.538.255h-1.952V42.17Zm7.735,3.955h2.47v-3.92h3.533v3.92h2.479V36.791h-2.479V40.21h-3.533V36.791h-2.47v9.334Zm10.188,0h2.373l3.849-5.968v5.968h2.373V36.791h-2.425l-3.8,5.862V36.791h-2.373v9.334Zm10.345,0h2.373l3.85-5.968v5.968h2.373V36.791h-2.426l-3.8,5.862V36.791h-2.373v9.334Zm5.476-12.177a2.043,2.043,0,0,1-2.2,0A1.355,1.355,0,0,1,167.728,33h-1.2a2.787,2.787,0,0,0,.839,1.877,3,3,0,0,0,3.806,0A2.787,2.787,0,0,0,172.008,33h-1.2A1.355,1.355,0,0,1,170.365,33.948ZM84.9,63.151a3.51,3.51,0,0,1-.633,1.288A1.55,1.55,0,0,1,83,64.944a5.468,5.468,0,0,1-1.046-.114l0.22,1.934a6.55,6.55,0,0,0,1.4.149,4.889,4.889,0,0,0,1.261-.149,2.961,2.961,0,0,0,.94-0.418,2.709,2.709,0,0,0,.677-0.7,6.639,6.639,0,0,0,.62-1.248l0.589-1.626,3.3-8.982H88.392l-2.18,6.627L83.98,53.791H81.352Zm6.812-.026h2.47v-3.92h3.533v3.92H100.2V53.791H97.718V57.21H94.185V53.791h-2.47v9.334Zm12.719-10.6V50.24h-2.47v2.285h2.47Zm0,10.6V53.791h-2.47v9.334h2.47Zm1.837,0h5.88a3.56,3.56,0,0,0,2.364-.681,2.214,2.214,0,0,0,.8-1.771,2.366,2.366,0,0,0-.474-1.424,2.42,2.42,0,0,0-1.442-.888,2.192,2.192,0,0,0,1.591-2.136,2.12,2.12,0,0,0-.826-1.828,4.2,4.2,0,0,0-2.487-.607h-5.406v9.334Zm2.488-7.752h1.59a4.026,4.026,0,0,1,1.7.251,0.873,0.873,0,0,1,.479.839,0.974,0.974,0,0,1-.514.914,3.566,3.566,0,0,1-1.666.29h-1.59V55.373Zm0,3.8h1.265a5.878,5.878,0,0,1,2.154.259,1.094,1.094,0,0,1,.07,1.859,3.469,3.469,0,0,1-1.538.255h-1.951V59.17Zm12.4,2a1.513,1.513,0,0,1-.976.316,1.87,1.87,0,0,1-1.424-.611,2.5,2.5,0,0,1-.6-1.709h6.187a6.091,6.091,0,0,0-1.151-4.214,4.144,4.144,0,0,0-3.287-1.375,4,4,0,0,0-3.068,1.314,5.157,5.157,0,0,0-1.213,3.634,5.346,5.346,0,0,0,.923,3.217,4.177,4.177,0,0,0,3.6,1.591,4.4,4.4,0,0,0,2.562-.708,4.036,4.036,0,0,0,1.5-2.061l-2.461-.413A1.959,1.959,0,0,1,121.161,61.174Zm-2.953-3.516a2.281,2.281,0,0,1,.518-1.6,1.716,1.716,0,0,1,1.336-.589,1.7,1.7,0,0,1,1.283.558,2.378,2.378,0,0,1,.554,1.63h-3.691Zm7.365,9.018h2.47v-4.7a4.724,4.724,0,0,0,1.323,1.055,3.145,3.145,0,0,0,1.4.308,3.557,3.557,0,0,0,2.768-1.3,5.313,5.313,0,0,0,1.143-3.634,5.158,5.158,0,0,0-1.134-3.551,3.56,3.56,0,0,0-2.76-1.274,3.344,3.344,0,0,0-1.7.439,3.447,3.447,0,0,0-1.213,1.143V53.791h-2.3V66.676Zm3.042-10.446a1.893,1.893,0,0,1,1.5-.7,1.82,1.82,0,0,1,1.459.712,3.371,3.371,0,0,1,.589,2.18,3.554,3.554,0,0,1-.571,2.263,1.784,1.784,0,0,1-1.433.69,1.909,1.909,0,0,1-1.52-.751,3.6,3.6,0,0,1-.624-2.325A3.107,3.107,0,0,1,128.615,56.23Zm14-1.916a4.51,4.51,0,0,0-2.712-.734,4.338,4.338,0,0,0-3.3,1.288,5.018,5.018,0,0,0-1.222,3.6,5.011,5.011,0,0,0,1.217,3.577,4.273,4.273,0,0,0,3.265,1.292,4.485,4.485,0,0,0,2.874-.852,4.3,4.3,0,0,0,1.451-2.523l-2.426-.413a2.4,2.4,0,0,1-.633,1.375,1.665,1.665,0,0,1-1.151.4,1.833,1.833,0,0,1-1.5-.685,3.778,3.778,0,0,1-.558-2.347,3.267,3.267,0,0,1,.549-2.131,1.846,1.846,0,0,1,1.473-.637,1.686,1.686,0,0,1,1.129.369,1.767,1.767,0,0,1,.558,1.1l2.435-.439A4.066,4.066,0,0,0,142.612,54.314Zm2.536,8.811h2.373l3.85-5.968v5.968h2.373V53.791h-2.426l-3.8,5.862V53.791h-2.373v9.334Zm9.3-7.339h2.988v7.339h2.47V55.786h2.988v-2h-8.446v2Zm14.01,5.388a1.512,1.512,0,0,1-.975.316,1.869,1.869,0,0,1-1.424-.611,2.5,2.5,0,0,1-.6-1.709h6.188a6.086,6.086,0,0,0-1.152-4.214,4.143,4.143,0,0,0-3.287-1.375,3.994,3.994,0,0,0-3.067,1.314,5.152,5.152,0,0,0-1.213,3.634,5.339,5.339,0,0,0,.923,3.217,4.175,4.175,0,0,0,3.6,1.591,4.4,4.4,0,0,0,2.562-.708,4.038,4.038,0,0,0,1.5-2.061l-2.461-.413A1.953,1.953,0,0,1,168.458,61.174Zm-2.953-3.516a2.276,2.276,0,0,1,.519-1.6,1.782,1.782,0,0,1,2.619-.031,2.378,2.378,0,0,1,.553,1.63h-3.691Zm6.092-1.872h2.988v7.339h2.47V55.786h2.988v-2H171.6v2Z"/>
</svg>
